solid cuboid_w-40.00_l-40.00_h-40.00_t-0.00
  facet normal 0.000000 0.000000 -1.000000
    outer loop
      vertex 40.000000 40.000000 0.000000
      vertex 0.000000 0.000000 0.000000
      vertex 0.000000 40.000000 0.000000
    endloop
  endfacet
  facet normal 0.000000 0.000000 -1.000000
    outer loop
      vertex 40.000000 0.000000 0.000000
      vertex 0.000000 0.000000 0.000000
      vertex 40.000000 40.000000 0.000000
    endloop
  endfacet
  facet normal -0.000000 0.000000 1.000000
    outer loop
      vertex 40.000000 40.000000 40.000000
      vertex 0.000000 0.000000 40.000000
      vertex 40.000000 0.000000 40.000000
    endloop
  endfacet
  facet normal -0.000000 0.000000 1.000000
    outer loop
      vertex 0.000000 40.000000 40.000000
      vertex 0.000000 0.000000 40.000000
      vertex 40.000000 40.000000 40.000000
    endloop
  endfacet
  facet normal 0.000000 -1.000000 0.000000
    outer loop
      vertex 40.000000 0.000000 40.000000
      vertex 0.000000 0.000000 0.000000
      vertex 40.000000 0.000000 0.000000
    endloop
  endfacet
  facet normal 0.000000 -1.000000 0.000000
    outer loop
      vertex 0.000000 0.000000 40.000000
      vertex 0.000000 0.000000 0.000000
      vertex 40.000000 0.000000 40.000000
    endloop
  endfacet
  facet normal 0.000000 1.000000 -0.000000
    outer loop
      vertex 40.000000 40.000000 40.000000
      vertex 0.000000 40.000000 0.000000
      vertex 0.000000 40.000000 40.000000
    endloop
  endfacet
  facet normal 0.000000 1.000000 -0.000000
    outer loop
      vertex 40.000000 40.000000 0.000000
      vertex 0.000000 40.000000 0.000000
      vertex 40.000000 40.000000 40.000000
    endloop
  endfacet
  facet normal -1.000000 0.000000 0.000000
    outer loop
      vertex 0.000000 40.000000 40.000000
      vertex 0.000000 0.000000 0.000000
      vertex 0.000000 0.000000 40.000000
    endloop
  endfacet
  facet normal -1.000000 0.000000 0.000000
    outer loop
      vertex 0.000000 40.000000 0.000000
      vertex 0.000000 0.000000 0.000000
      vertex 0.000000 40.000000 40.000000
    endloop
  endfacet
  facet normal 1.000000 -0.000000 0.000000
    outer loop
      vertex 40.000000 40.000000 40.000000
      vertex 40.000000 0.000000 0.000000
      vertex 40.000000 40.000000 0.000000
    endloop
  endfacet
  facet normal 1.000000 -0.000000 0.000000
    outer loop
      vertex 40.000000 0.000000 40.000000
      vertex 40.000000 0.000000 0.000000
      vertex 40.000000 40.000000 40.000000
    endloop
  endfacet
endsolid cuboid_w-40.00_l-40.00_h-40.00_t-0.00
